<?xml version="1.0" standalone="no"?>
<!DOCTYPE svg PUBLIC "-//W3C//DTD SVG 20010904//EN"
 "http://www.w3.org/TR/2001/REC-SVG-20010904/DTD/svg10.dtd">
<svg version="1.0" xmlns="http://www.w3.org/2000/svg"
 width="2000.000000pt" height="2000.000000pt" viewBox="0 0 2000.000000 2000.000000"
 preserveAspectRatio="xMidYMid meet">
<metadata>
Created by potrace 1.11, written by Peter Selinger 2001-2013
</metadata>
<g transform="translate(0.000000,2000.000000) scale(0.100000,-0.100000)"
fill="#000000" stroke="none">
<path d="M9628 18937 c-12 -4 -58 -7 -102 -7 -91 1 -211 -6 -406 -25 -30 -3
-73 -6 -95 -8 -22 -1 -46 -6 -53 -10 -7 -5 -25 -6 -41 -2 -18 4 -32 2 -36 -5
-5 -7 -20 -9 -40 -6 -20 4 -36 2 -40 -4 -4 -7 -19 -9 -35 -5 -16 4 -31 2 -35
-5 -4 -7 -19 -9 -35 -5 -16 4 -31 2 -35 -5 -4 -7 -19 -9 -35 -5 -17 4 -31 2
-35 -5 -4 -7 -18 -9 -30 -6 -13 3 -27 1 -30 -5 -4 -6 -18 -8 -30 -5 -13 3 -27
1 -30 -4 -4 -6 -16 -8 -26 -5 -11 4 -26 1 -34 -5 -8 -6 -19 -9 -25 -5 -6 4
-17 1 -25 -5 -8 -6 -23 -9 -35 -5 -12 4 -20 2 -20 -5 0 -8 -9 -10 -24 -6 -14
3 -28 1 -31 -4 -4 -6 -15 -8 -25 -5 -10 3 -21 1 -25 -5 -4 -6 -15 -8 -25 -5
-10 3 -21 1 -25 -5 -4 -6 -15 -8 -26 -5 -11 4 -19 2 -19 -5 0 -7 -8 -9 -19 -5
-11 3 -22 1 -26 -5 -4 -6 -15 -8 -25 -5 -10 3 -21 1 -24 -4 -4 -6 -13 -8 -20
-5 -8 3 -17 0 -21 -6 -4 -6 -15 -8 -26 -5 -11 4 -19 2 -19 -5 0 -7 -8 -9 -20
-5 -12 4 -20 2 -20 -5 0 -7 -8 -9 -20 -5 -12 4 -20 2 -20 -5 0 -7 -8 -9 -20
-5 -12 4 -20 2 -20 -5 0 -7 -8 -9 -20 -5 -12 4 -20 2 -20 -5 0 -7 -8 -9 -20
-5 -12 4 -20 2 -20 -5 0 -7 -7 -10 -15 -7 -8 4 -17 2 -21 -4 -3 -6 -12 -8 -20
-5 -7 3 -16 1 -19 -4 -3 -5 -12 -7 -20 -3 -8 3 -15 0 -15 -7 0 -7 -8 -9 -20
-5 -12 4 -20 2 -20 -5 0 -7 -7 -10 -15 -7 -8 4 -17 2 -20 -3 -3 -5 -12 -7 -20
-3 -8 3 -15 0 -15 -7 0 -7 -7 -10 -15 -7 -8 4 -17 2 -20 -4 -4 -5 -10 -7 -15
-4 -5 3 -11 1 -15 -4 -3 -6 -12 -8 -20 -4 -8 3 -15 0 -15 -7 0 -7 -7 -10 -15
-7 -8 4 -17 2 -20 -4 -4 -5 -10 -7 -15 -4 -5 3 -11 1 -15 -4 -3 -6 -12 -8 -20
-4 -8 3 -15 0 -15 -7 0 -7 -7 -10 -15 -6 -8 3 -15 1 -15 -5 0 -6 -7 -9 -15 -5
-8 3 -15 1 -15 -5 0 -6 -7 -9 -15 -5 -8 3 -15 1 -15 -5 0 -6 -7 -9 -15 -6 -8
4 -17 2 -20 -4 -4 -5 -10 -7 -15 -4 -5 3 -11 1 -15 -5 -4 -6 -11 -8 -16 -5 -5
4 -9 1 -9 -5 0 -7 -7 -10 -15 -6 -8 3 -15 1 -15 -5 0 -6 -7 -9 -15 -5 -8 3
-15 1 -15 -5 0 -6 -7 -9 -15 -5 -8 3 -15 1 -15 -5 0 -6 -7 -9 -15 -5 -8 3 -15
1 -15 -5 0 -6 -4 -8 -9 -4 -5 3 -12 1 -16 -5 -4 -6 -10 -8 -15 -5 -5 3 -11 1
-15 -5 -4 -6 -11 -8 -16 -5 -5 4 -9 1 -9 -5 0 -7 -7 -10 -15 -6 -8 3 -15 1
-15 -5 0 -6 -4 -8 -9 -4 -5 3 -12 1 -16 -5 -4 -6 -10 -8 -15 -5 -5 3 -11 1
-15 -5 -4 -6 -11 -8 -16 -5 -5 4 -9 1 -9 -5 0 -6 -4 -9 -9 -5 -5 3 -12 1 -16
-5 -4 -6 -11 -8 -16 -5 -5 4 -9 1 -9 -5 0 -7 -7 -10 -15 -6 -8 3 -15 1 -15 -5
0 -6 -4 -7 -10 -4 -5 3 -10 1 -10 -5 0 -7 -7 -10 -15 -6 -8 3 -15 1 -15 -5 0
-6 -4 -8 -9 -4 -5 3 -12 1 -16 -5 -4 -6 -11 -8 -16 -5 -5 4 -9 1 -9 -5 0 -6
-4 -8 -10 -5 -5 3 -10 1 -10 -5 0 -7 -7 -10 -15 -6 -8 3 -15 1 -15 -5 0 -6 -4
-7 -10 -4 -5 3 -10 1 -10 -5 0 -6 -4 -9 -9 -5 -5 3 -12 1 -16 -5 -4 -6 -11 -8
-16 -5 -5 4 -9 1 -9 -5 0 -6 -4 -9 -9 -5 -5 3 -12 1 -16 -5 -4 -6 -11 -8 -16
-5 -5 4 -9 1 -9 -5 0 -6 -4 -8 -10 -5 -5 3 -10 1 -10 -4 0 -6 -3 -10 -7 -9 -5
1 -18 -3 -29 -10 -12 -6 -24 -8 -28 -5 -3 3 -6 1 -6 -6 0 -7 -4 -9 -10 -6 -5
3 -10 1 -10 -4 0 -6 -3 -10 -7 -9 -5 1 -18 -3 -29 -10 -12 -6 -24 -8 -28 -5
-3 3 -6 1 -6 -6 0 -7 -4 -9 -10 -6 -5 3 -10 1 -10 -5 0 -6 -4 -8 -10 -5 -5 3
-10 1 -10 -4 0 -6 -3 -10 -7 -9 -5 1 -22 -5 -39 -15 -17 -9 -34 -13 -38 -10
-3 4 -6 1 -6 -6 0 -7 -4 -9 -10 -6 -5 3 -10 1 -10 -5 0 -6 -4 -8 -10 -5 -5 3
-10 1 -10 -5 0 -6 -4 -8 -10 -5 -5 3 -10 1 -10 -5 0 -6 -4 -8 -10 -5 -6 3 -10
1 -10 -5 0 -6 -4 -8 -10 -5 -5 3 -10 1 -10 -5 0 -6 -4 -8 -10 -5 -5 3 -10 1
-10 -5 0 -6 -4 -8 -10 -5 -5 3 -10 1 -10 -5 0 -6 -4 -8 -10 -5 -5 3 -10 1 -10
-5 0 -6 -4 -8 -10 -5 -5 3 -10 1 -10 -5 0 -6 -4 -8 -10 -5 -5 3 -10 1 -10 -5
0 -6 -4 -8 -10 -5 -5 3 -10 1 -10 -5 0 -6 -4 -8 -10 -5 -5 3 -10 1 -10 -5 0
-6 -4 -8 -10 -5 -5 3 -10 1 -10 -5 0 -6 -4 -8 -10 -5 -5 3 -10 1 -10 -5 0 -6
-4 -8 -10 -5 -6 3 -10 1 -10 -5 0 -6 -4 -8 -10 -5 -5 3 -10 1 -10 -5 0 -6 -4
-8 -10 -5 -6 3 -10 1 -10 -5 0 -6 -4 -8 -10 -5 -5 3 -10 1 -10 -4 0 -6 -7 -11
-15 -11 -8 0 -15 -5 -15 -11 0 -5 -4 -7 -10 -4 -5 3 -10 1 -10 -5 0 -6 -4 -8
-10 -5 -5 3 -10 1 -10 -5 0 -6 -4 -8 -10 -5 -5 3 -10 1 -10 -5 0 -6 -4 -8 -10
-5 -5 3 -10 2 -10 -4 0 -6 -11 -13 -25 -17 -14 -3 -25 -10 -25 -16 0 -5 -4 -6
-10 -3 -5 3 -10 1 -10 -5 0 -6 -4 -8 -10 -5 -6 3 -10 1 -10 -4 0 -6 -7 -11
-15 -11 -8 0 -15 -5 -15 -11 0 -5 -4 -7 -10 -4 -5 3 -10 1 -10 -5 0 -6 -4 -8
-10 -5 -5 3 -10 1 -10 -4 0 -6 -7 -11 -15 -11 -8 0 -15 -5 -15 -12 0 -6 -3 -9
-6 -5 -3 3 -15 -3 -27 -13 -11 -11 -24 -17 -29 -14 -4 3 -8 1 -8 -5 0 -6 -11
-13 -25 -17 -14 -3 -25 -10 -25 -16 0 -5 -4 -7 -9 -4 -5 3 -12 -1 -15 -10 -4
-9 -9 -14 -12 -11 -4 3 -15 -3 -27 -13 -11 -11 -24 -17 -29 -14 -4 3 -8 0 -8
-5 0 -6 -7 -11 -15 -11 -8 0 -15 -5 -15 -11 0 -5 -4 -8 -9 -5 -5 3 -12 -1 -15
-10 -3 -8 -10 -12 -16 -9 -5 3 -10 1 -10 -4 0 -6 -7 -11 -15 -11 -8 0 -15 -4
-15 -10 0 -5 -7 -10 -15 -10 -8 0 -15 -4 -15 -10 0 -5 -5 -10 -10 -10 -6 0
-20 -9 -32 -20 -12 -10 -24 -17 -28 -15 -5 3 -11 -2 -14 -11 -3 -8 -10 -13
-15 -10 -5 3 -12 -1 -15 -10 -3 -8 -10 -13 -15 -10 -5 3 -12 -1 -15 -10 -3 -8
-10 -13 -15 -10 -5 3 -11 -1 -15 -9 -3 -8 -12 -15 -21 -15 -8 0 -15 -4 -15
-10 0 -5 -6 -10 -14 -10 -8 0 -17 -7 -20 -16 -3 -8 -10 -13 -15 -10 -5 3 -11
-1 -15 -9 -3 -8 -12 -15 -21 -15 -8 0 -15 -4 -15 -10 0 -5 -6 -10 -14 -10 -8
0 -17 -7 -20 -16 -3 -8 -10 -13 -15 -10 -5 3 -11 -1 -15 -9 -3 -8 -12 -15 -20
-15 -7 0 -16 -7 -20 -15 -3 -8 -12 -15 -20 -15 -7 0 -16 -7 -20 -15 -3 -8 -12
-15 -20 -15 -7 0 -17 -7 -20 -16 -4 -9 -9 -14 -13 -10 -3 3 -12 -3 -20 -14 -8
-11 -20 -20 -27 -20 -8 0 -16 -7 -20 -15 -3 -8 -12 -15 -20 -15 -7 0 -16 -7
-20 -15 -3 -8 -11 -15 -18 -15 -7 0 -19 -9 -26 -20 -7 -11 -18 -20 -25 -20 -7
0 -18 -9 -25 -20 -7 -11 -18 -20 -25 -20 -7 0 -18 -9 -25 -20 -7 -11 -18 -20
-25 -20 -7 0 -18 -9 -25 -20 -7 -11 -18 -20 -26 -20 -8 0 -21 -11 -30 -25 -9
-14 -22 -25 -29 -25 -7 0 -23 -13 -35 -30 -13 -16 -27 -30 -33 -30 -6 0 -22
-13 -36 -30 -13 -16 -30 -30 -35 -30 -6 0 -26 -18 -45 -40 -19 -22 -38 -40
-43 -40 -10 0 -61 -49 -355 -344 -334 -335 -335 -336 -335 -345 0 -5 -18 -25
-40 -44 -22 -19 -40 -39 -40 -45 0 -5 -13 -22 -30 -35 -16 -14 -30 -30 -30
-36 0 -6 -13 -20 -30 -33 -16 -12 -30 -28 -30 -35 0 -7 -11 -20 -25 -29 -14
-9 -25 -22 -25 -30 0 -8 -9 -19 -20 -26 -11 -7 -20 -18 -20 -25 0 -7 -9 -18
-20 -25 -11 -7 -20 -18 -20 -25 0 -7 -9 -18 -20 -25 -11 -7 -20 -18 -20 -25 0
-7 -9 -18 -20 -25 -11 -7 -20 -19 -20 -26 0 -7 -7 -15 -15 -18 -8 -4 -15 -13
-15 -20 0 -8 -7 -17 -15 -20 -8 -4 -15 -12 -15 -20 0 -7 -9 -19 -20 -27 -11
-8 -17 -17 -14 -20 4 -4 -1 -9 -10 -13 -9 -3 -16 -13 -16 -20 0 -8 -7 -17 -15
-20 -8 -4 -15 -13 -15 -20 0 -8 -7 -17 -15 -20 -8 -4 -15 -13 -15 -20 0 -8 -7
-17 -15 -20 -8 -4 -12 -10 -9 -15 3 -5 -2 -12 -10 -15 -9 -3 -16 -12 -16 -20
0 -8 -4 -14 -10 -14 -5 0 -10 -7 -10 -15 0 -9 -7 -18 -15 -21 -8 -4 -12 -10
-9 -15 3 -5 -2 -12 -10 -15 -9 -3 -16 -12 -16 -20 0 -8 -4 -14 -10 -14 -5 0
-10 -7 -10 -15 0 -9 -7 -18 -15 -21 -8 -4 -12 -10 -9 -15 3 -5 -2 -12 -10 -15
-9 -3 -13 -10 -10 -15 3 -5 -2 -12 -10 -15 -9 -3 -13 -10 -10 -15 3 -5 -2 -12
-10 -15 -9 -3 -14 -9 -11 -14 2 -4 -5 -16 -15 -28 -11 -12 -20 -26 -20 -32 0
-5 -4 -10 -10 -10 -5 0 -10 -7 -10 -15 0 -8 -4 -15 -10 -15 -5 0 -10 -7 -10
-15 0 -8 -5 -15 -11 -15 -5 0 -7 -5 -4 -10 3 -6 -1 -13 -9 -16 -9 -3 -13 -10
-10 -15 3 -5 0 -9 -5 -9 -6 0 -11 -7 -11 -15 0 -8 -5 -15 -11 -15 -5 0 -8 -4
-5 -8 3 -5 -3 -18 -14 -29 -10 -12 -16 -23 -13 -27 3 -3 -2 -8 -11 -12 -9 -3
-13 -10 -10 -15 3 -5 1 -9 -4 -9 -6 0 -13 -11 -16 -25 -4 -14 -11 -25 -17 -25
-6 0 -8 -4 -5 -8 3 -5 -3 -18 -14 -29 -10 -12 -16 -24 -13 -27 4 -3 1 -6 -5
-6 -7 0 -12 -7 -12 -15 0 -8 -5 -15 -11 -15 -5 0 -7 -4 -4 -10 3 -5 1 -10 -5
-10 -6 0 -8 -4 -5 -10 3 -5 1 -10 -4 -10 -6 0 -11 -7 -11 -15 0 -8 -5 -15 -11
-15 -5 0 -7 -4 -4 -10 3 -5 1 -10 -5 -10 -6 0 -8 -4 -5 -10 3 -5 2 -10 -3 -10
-6 0 -13 -11 -16 -25 -4 -14 -11 -25 -17 -25 -6 0 -7 -4 -4 -10 3 -5 1 -10 -5
-10 -6 0 -8 -4 -5 -10 3 -5 1 -10 -5 -10 -6 0 -8 -4 -5 -10 3 -5 1 -10 -5 -10
-6 0 -8 -4 -5 -10 3 -5 1 -10 -4 -10 -6 0 -11 -7 -11 -15 0 -8 -5 -15 -11 -15
-5 0 -7 -4 -4 -10 3 -5 1 -10 -5 -10 -6 0 -8 -4 -5 -10 3 -5 1 -10 -5 -10 -6
0 -8 -4 -5 -10 3 -5 1 -10 -5 -10 -6 0 -8 -4 -5 -10 3 -5 1 -10 -5 -10 -6 0
-8 -4 -5 -10 3 -5 1 -10 -5 -10 -6 0 -8 -4 -5 -10 3 -5 1 -10 -5 -10 -6 0 -8
-4 -5 -10 3 -5 1 -10 -5 -10 -6 0 -8 -4 -5 -10 3 -5 1 -10 -5 -10 -6 0 -8 -4
-5 -10 3 -5 1 -10 -5 -10 -6 0 -8 -4 -5 -10 3 -5 1 -10 -5 -10 -6 0 -8 -4 -5
-10 3 -5 1 -10 -5 -10 -6 0 -8 -4 -5 -10 3 -5 1 -10 -5 -10 -6 0 -8 -4 -5 -10
3 -5 1 -10 -5 -10 -6 0 -8 -4 -5 -10 3 -5 1 -10 -5 -10 -6 0 -8 -4 -5 -10 3
-5 1 -10 -5 -10 -6 0 -8 -4 -5 -10 3 -5 1 -10 -5 -10 -6 0 -8 -4 -5 -10 3 -5
1 -10 -5 -10 -6 0 -8 -4 -5 -10 3 -5 1 -10 -6 -10 -7 0 -10 -3 -6 -6 3 -4 -1
-21 -10 -38 -10 -17 -16 -34 -15 -38 1 -5 -3 -8 -9 -8 -5 0 -7 -4 -4 -10 3 -5
1 -10 -5 -10 -6 0 -8 -4 -5 -10 3 -5 1 -10 -6 -10 -7 0 -9 -3 -6 -6 3 -4 1
-16 -5 -28 -7 -11 -11 -24 -10 -28 1 -5 -3 -8 -9 -8 -5 0 -7 -4 -4 -10 3 -5 1
-10 -6 -10 -7 0 -9 -3 -6 -6 3 -4 1 -16 -5 -28 -7 -11 -11 -24 -10 -28 1 -5
-3 -8 -9 -8 -5 0 -7 -4 -4 -10 3 -5 1 -10 -5 -10 -6 0 -9 -4 -5 -9 3 -5 1 -12
-5 -16 -6 -4 -8 -11 -5 -16 4 -5 1 -9 -5 -9 -6 0 -9 -4 -5 -9 3 -5 1 -12 -5
-16 -6 -4 -8 -11 -5 -16 4 -5 1 -9 -5 -9 -6 0 -8 -4 -5 -10 3 -5 2 -10 -4 -10
-6 0 -8 -7 -5 -15 4 -8 1 -15 -6 -15 -6 0 -8 -4 -5 -10 3 -5 1 -10 -5 -10 -6
0 -9 -4 -5 -9 3 -5 1 -12 -5 -16 -6 -4 -8 -11 -5 -16 4 -5 2 -9 -4 -9 -6 0 -8
-7 -5 -15 4 -8 1 -15 -6 -15 -6 0 -8 -4 -5 -10 3 -5 2 -10 -4 -10 -6 0 -8 -7
-5 -15 4 -8 1 -15 -6 -15 -6 0 -9 -4 -5 -9 3 -5 1 -12 -5 -16 -6 -4 -8 -11 -5
-16 4 -5 1 -9 -5 -9 -6 0 -9 -4 -5 -9 3 -5 1 -12 -5 -16 -6 -4 -8 -10 -5 -15
3 -5 1 -11 -5 -15 -6 -4 -8 -11 -5 -16 4 -5 2 -9 -4 -9 -6 0 -8 -7 -5 -15 4
-8 1 -15 -6 -15 -6 0 -9 -4 -5 -9 3 -5 1 -12 -5 -16 -6 -4 -8 -10 -5 -15 3 -5
1 -11 -5 -15 -6 -4 -8 -11 -5 -16 4 -5 2 -9 -4 -9 -6 0 -8 -7 -5 -15 4 -8 1
-15 -5 -15 -6 0 -8 -7 -5 -15 4 -8 1 -15 -5 -15 -6 0 -8 -7 -5 -15 4 -8 1 -15
-5 -15 -6 0 -8 -7 -5 -15 4 -8 1 -15 -6 -15 -6 0 -9 -4 -5 -9 3 -5 1 -12 -5
-16 -6 -4 -8 -10 -5 -15 3 -5 1 -11 -4 -15 -6 -3 -8 -12 -4 -20 3 -8 0 -15 -6
-15 -6 0 -8 -7 -5 -15 4 -8 1 -15 -5 -15 -6 0 -8 -7 -5 -15 4 -8 1 -15 -5 -15
-6 0 -8 -7 -5 -15 4 -8 1 -15 -6 -15 -7 0 -10 -7 -7 -15 4 -8 2 -17 -4 -20 -5
-4 -7 -10 -4 -15 3 -5 1 -11 -4 -15 -6 -3 -8 -12 -4 -20 3 -8 0 -15 -7 -15 -7
0 -10 -7 -7 -15 4 -8 2 -17 -4 -20 -5 -4 -7 -10 -4 -15 3 -5 1 -11 -4 -15 -6
-3 -8 -12 -4 -20 3 -8 0 -15 -7 -15 -7 0 -10 -7 -7 -15 4 -8 2 -17 -3 -20 -5
-3 -7 -12 -3 -20 3 -8 0 -15 -7 -15 -7 0 -9 -8 -5 -20 4 -12 2 -20 -5 -20 -7
0 -10 -7 -7 -15 4 -8 2 -17 -3 -20 -5 -3 -7 -12 -4 -19 3 -8 1 -17 -5 -20 -6
-4 -8 -13 -4 -21 3 -8 0 -15 -7 -15 -7 0 -9 -8 -5 -20 4 -12 2 -20 -5 -20 -7
0 -9 -8 -5 -20 4 -12 2 -20 -5 -20 -7 0 -9 -8 -5 -20 4 -12 2 -20 -5 -20 -7 0
-9 -8 -5 -20 4 -12 2 -20 -5 -20 -7 0 -9 -8 -5 -20 4 -12 2 -20 -5 -20 -7 0
-9 -8 -5 -19 3 -11 1 -22 -5 -26 -6 -4 -8 -15 -5 -26 4 -11 2 -19 -5 -19 -7 0
-9 -8 -5 -19 3 -11 1 -22 -5 -26 -6 -4 -8 -15 -5 -26 4 -11 2 -19 -5 -19 -7 0
-9 -8 -5 -19 3 -11 1 -22 -5 -26 -6 -4 -8 -15 -5 -25 3 -10 1 -21 -5 -25 -6
-4 -8 -15 -5 -25 3 -10 1 -21 -5 -25 -5 -3 -7 -17 -4 -31 4 -15 2 -24 -6 -24
-7 0 -9 -8 -5 -20 4 -12 1 -27 -5 -35 -6 -8 -9 -19 -5 -25 4 -6 1 -17 -5 -25
-6 -8 -9 -23 -5 -34 3 -10 1 -22 -5 -26 -5 -3 -7 -17 -4 -30 3 -12 1 -26 -5
-30 -6 -3 -8 -17 -5 -30 3 -12 1 -26 -6 -30 -7 -4 -9 -18 -5 -35 4 -16 2 -31
-5 -35 -7 -4 -9 -19 -5 -35 4 -16 2 -31 -5 -35 -7 -4 -9 -19 -5 -35 4 -16 2
-31 -5 -35 -6 -4 -8 -20 -4 -40 3 -20 1 -35 -6 -40 -7 -4 -9 -18 -5 -36 4 -16
3 -34 -2 -41 -4 -7 -9 -31 -10 -53 -2 -22 -5 -65 -8 -95 -28 -292 -33 -427
-33 -880 0 -360 3 -512 13 -640 12 -142 15 -187 20 -240 3 -30 6 -73 8 -95 1
-22 6 -46 10 -53 5 -7 6 -25 2 -41 -4 -18 -2 -32 5 -36 7 -5 9 -20 6 -40 -4
-20 -2 -36 4 -40 7 -4 9 -19 5 -35 -4 -16 -2 -31 5 -35 7 -4 9 -19 5 -35 -4
-16 -2 -31 5 -35 7 -4 9 -19 5 -35 -4 -17 -2 -31 5 -35 7 -4 9 -18 6 -30 -3
-13 -1 -27 5 -30 6 -4 8 -18 5 -30 -3 -13 -2 -27 4 -30 6 -3 7 -17 4 -30 -3
-12 -1 -26 5 -30 6 -3 8 -17 5 -31 -4 -15 -2 -24 6 -24 8 0 10 -9 6 -25 -4
-16 -2 -25 5 -25 7 0 9 -9 5 -24 -3 -14 -1 -28 4 -31 6 -4 8 -15 5 -25 -3 -10
-1 -21 5 -25 6 -4 8 -15 5 -25 -3 -10 -1 -21 5 -25 6 -4 8 -15 5 -26 -4 -11
-2 -19 5 -19 7 0 9 -8 5 -19 -3 -11 -1 -22 5 -26 6 -4 8 -15 5 -25 -3 -10 -1
-21 4 -24 6 -4 8 -13 5 -20 -3 -8 0 -17 6 -21 6 -4 8 -15 5 -26 -4 -11 -2 -19
5 -19 7 0 9 -8 5 -20 -4 -12 -2 -20 5 -20 7 0 9 -8 5 -20 -4 -12 -2 -20 5 -20
7 0 9 -8 5 -20 -4 -12 -2 -20 5 -20 7 0 9 -8 5 -20 -4 -12 -2 -20 5 -20 7 0 9
-8 5 -20 -4 -12 -2 -20 5 -20 7 0 9 -8 5 -20 -4 -12 -2 -20 5 -20 7 0 10 -7 7
-15 -4 -8 -2 -17 3 -20 5 -3 7 -12 4 -19 -3 -8 -1 -17 5 -20 6 -4 8 -13 4 -21
-3 -8 0 -15 7 -15 7 0 10 -7 7 -15 -4 -8 -2 -17 3 -20 5 -3 7 -12 3 -20 -3 -8
0 -15 7 -15 7 0 10 -7 7 -15 -4 -8 -2 -17 3 -20 5 -3 7 -12 3 -20 -3 -8 0 -15
7 -15 7 0 10 -7 6 -15 -3 -8 -1 -15 5 -15 6 0 9 -7 6 -15 -4 -8 -2 -17 3 -20
5 -3 7 -12 3 -20 -3 -8 0 -15 6 -15 6 0 8 -7 5 -15 -4 -8 -1 -15 6 -15 7 0 10
-7 6 -15 -3 -8 -1 -15 5 -15 6 0 9 -7 5 -15 -3 -8 -1 -15 5 -15 6 0 9 -6 6
-14 -3 -8 -3 -17 1 -21 4 -4 8 -11 8 -16 1 -5 3 -11 4 -14 1 -3 4 -9 5 -15 1
-5 4 -12 5 -15 1 -3 4 -9 5 -15 1 -5 4 -12 5 -15 1 -3 4 -9 5 -15 1 -5 4 -13
5 -17 1 -5 2 -11 1 -15 0 -5 4 -8 10 -8 6 0 9 -7 5 -15 -3 -8 -1 -15 5 -15 6
0 9 -7 5 -15 -3 -8 -1 -15 4 -15 5 0 7 -7 4 -15 -4 -8 -1 -15 6 -15 6 0 9 -4
5 -9 -3 -5 -1 -12 5 -16 6 -4 8 -11 5 -16 -4 -5 -1 -9 5 -9 7 0 10 -7 6 -15
-3 -8 -1 -15 4 -15 5 0 7 -7 4 -15 -4 -8 -1 -15 6 -15 6 0 9 -4 5 -9 -3 -5 -1
-12 5 -16 6 -4 8 -11 5 -16 -4 -5 -2 -9 4 -9 6 0 8 -7 5 -15 -4 -8 -1 -15 6
-15 6 0 8 -4 5 -10 -3 -6 -1 -10 5 -10 7 0 10 -7 6 -15 -3 -8 -1 -15 5 -15 6
0 8 -4 4 -9 -3 -5 -1 -12 5 -16 6 -4 8 -11 5 -16 -4 -5 -1 -9 5 -9 6 0 9 -4 5
-9 -3 -5 -1 -12 5 -16 6 -4 8 -11 5 -16 -4 -5 -1 -9 5 -9 6 0 9 -4 5 -9 -3 -5
-1 -12 5 -16 6 -4 8 -11 5 -16 -4 -5 -1 -9 5 -9 6 0 9 -4 6 -9 -4 -5 -1 -11 4
-13 6 -2 12 -13 13 -26 0 -12 5 -22 10 -22 4 0 6 -4 2 -9 -3 -5 -1 -12 5 -16
6 -4 8 -11 5 -16 -4 -5 -1 -9 5 -9 6 0 8 -4 5 -10 -3 -5 -1 -10 5 -10 6 0 9
-4 5 -9 -3 -5 -1 -12 5 -16 6 -4 8 -11 5 -16 -4 -5 -1 -9 5 -9 6 0 8 -5 5 -10
-3 -6 -1 -10 5 -10 6 0 8 -4 5 -10 -3 -5 -1 -10 5 -10 6 0 9 -4 5 -9 -3 -5 -1
-12 5 -16 6 -4 8 -11 5 -16 -4 -5 -1 -9 5 -9 6 0 8 -4 5 -10 -3 -5 -1 -10 5
-10 6 0 8 -4 5 -10 -3 -5 -1 -10 5 -10 6 0 8 -4 5 -10 -3 -5 -1 -10 4 -10 6 0
10 -3 9 -7 -1 -5 3 -18 10 -29 6 -12 8 -24 5 -28 -3 -3 -1 -6 6 -6 7 0 9 -4 6
-10 -3 -5 -1 -10 5 -10 6 0 8 -4 5 -10 -3 -5 -1 -10 5 -10 6 0 8 -4 5 -10 -3
-5 -1 -10 5 -10 6 0 8 -4 5 -10 -3 -5 -1 -10 5 -10 6 0 8 -4 5 -10 -3 -5 -1
-10 5 -10 6 0 8 -4 5 -10 -3 -5 -1 -10 5 -10 6 0 8 -4 5 -10 -3 -5 -1 -10 5
-10 6 0 8 -4 5 -10 -3 -5 -1 -10 5 -10 6 0 8 -4 5 -10 -3 -5 -1 -10 5 -10 6 0
8 -4 5 -10 -3 -5 -1 -10 5 -10 6 0 8 -4 5 -10 -3 -5 -1 -10 5 -10 6 0 8 -4 5
-10 -3 -5 -1 -10 5 -10 6 0 8 -4 5 -10 -3 -5 -1 -10 5 -10 6 0 8 -4 5 -10 -3
-5 -1 -10 5 -10 6 0 8 -4 5 -10 -3 -6 -1 -10 5 -10 6 0 8 -5 5 -10 -3 -6 -1
-10 5 -10 6 0 8 -4 5 -10 -3 -5 -1 -10 5 -10 6 0 8 -4 5 -10 -3 -5 -1 -10 5
-10 6 0 8 -4 5 -10 -3 -6 -2 -10 4 -10 6 0 13 -11 17 -25 3 -14 10 -25 16 -25
5 0 6 -4 3 -10 -3 -5 -1 -10 5 -10 6 0 8 -4 5 -10 -3 -5 -1 -10 5 -10 6 0 8
-4 5 -10 -3 -5 -2 -10 4 -10 6 0 13 -11 17 -25 3 -14 10 -25 16 -25 5 0 6 -5
3 -10 -3 -6 -1 -10 5 -10 6 0 8 -4 5 -10 -3 -5 -1 -10 4 -10 6 0 11 -7 11 -15
0 -8 5 -15 11 -15 5 0 7 -4 4 -10 -3 -5 -1 -10 6 -10 7 0 10 -3 6 -6 -3 -3 3
-15 13 -27 11 -11 17 -24 14 -29 -3 -4 0 -8 6 -8 6 0 8 -4 5 -10 -3 -5 -1 -10
4 -10 6 0 11 -7 11 -15 0 -8 5 -15 11 -15 5 0 7 -4 4 -10 -3 -5 -1 -10 4 -10
6 0 11 -7 11 -15 0 -8 5 -15 11 -15 5 0 8 -4 5 -9 -3 -5 1 -12 10 -15 8 -3 12
-10 9 -16 -3 -5 -1 -10 5 -10 6 0 9 -4 6 -9 -3 -5 1 -12 10 -15 8 -3 12 -10 9
-16 -3 -5 -1 -10 4 -10 6 0 11 -7 11 -15 0 -8 5 -15 11 -15 5 0 8 -4 5 -9 -3
-5 1 -12 10 -15 8 -3 12 -10 9 -16 -3 -5 -1 -10 4 -10 6 0 11 -7 11 -15 0 -8
5 -15 10 -15 6 0 10 -5 10 -10 0 -6 9 -20 20 -32 10 -12 17 -24 15 -28 -3 -5
2 -11 11 -14 8 -3 13 -10 10 -15 -3 -5 1 -12 10 -15 8 -3 13 -10 10 -15 -3 -5
1 -12 10 -15 8 -3 13 -10 10 -15 -3 -5 1 -12 10 -15 8 -3 13 -10 10 -15 -3 -5
1 -11 9 -15 8 -3 15 -12 15 -21 0 -8 5 -15 10 -15 6 0 10 -7 10 -15 0 -8 5
-15 10 -15 6 0 10 -6 10 -14 0 -8 7 -17 16 -20 8 -3 13 -10 10 -15 -3 -5 1
-11 9 -15 8 -3 15 -12 15 -20 0 -7 7 -17 16 -20 8 -3 13 -10 10 -15 -3 -5 1
-11 9 -15 8 -3 15 -12 15 -20 0 -7 7 -16 15 -20 8 -3 15 -12 15 -20 0 -7 7
-17 16 -20 8 -3 13 -10 10 -15 -3 -5 1 -11 9 -15 8 -3 15 -11 15 -18 0 -7 9
-19 21 -26 12 -7 18 -16 15 -19 -3 -4 3 -13 14 -20 11 -8 18 -18 15 -23 -3 -5
4 -14 15 -20 11 -6 20 -16 20 -23 0 -7 9 -18 20 -25 11 -7 20 -18 20 -26 0 -8
7 -16 15 -20 8 -3 15 -12 15 -20 0 -7 11 -21 25 -30 14 -9 25 -22 25 -29 0 -7
9 -18 20 -25 11 -7 20 -17 20 -23 0 -6 11 -20 25 -31 14 -11 25 -25 25 -33 0
-7 11 -20 25 -29 14 -9 25 -22 25 -29 0 -6 16 -25 35 -40 19 -15 35 -32 35
-37 0 -6 18 -26 40 -46 22 -20 40 -40 40 -45 0 -4 23 -29 50 -55 28 -26 50
-50 50 -54 0 -8 472 -480 480 -480 4 0 28 -23 54 -50 26 -28 51 -50 55 -50 5
0 25 -18 45 -40 20 -22 40 -40 46 -40 5 0 22 -16 37 -35 15 -19 33 -35 40 -35
6 0 20 -11 31 -25 11 -14 25 -25 30 -25 6 0 19 -11 30 -25 11 -14 25 -25 31
-25 6 0 18 -11 27 -25 9 -14 20 -22 25 -20 4 3 16 -6 25 -20 9 -14 23 -25 30
-25 8 0 17 -7 20 -15 4 -8 12 -15 20 -15 8 0 19 -9 26 -20 7 -11 18 -20 25
-20 6 0 19 -10 27 -22 9 -12 16 -18 16 -13 1 6 9 0 19 -12 10 -12 21 -20 24
-17 3 3 12 -3 19 -15 7 -12 19 -21 26 -21 7 0 15 -7 18 -15 4 -8 10 -12 15 -9
5 3 12 -2 15 -10 3 -9 13 -16 20 -16 8 0 17 -7 20 -15 4 -8 13 -15 20 -15 8 0
17 -7 20 -15 4 -8 12 -15 20 -15 8 0 14 -4 14 -10 0 -5 7 -10 15 -10 9 0 18
-7 21 -15 4 -8 10 -12 15 -9 5 3 12 -2 15 -10 3 -9 12 -16 20 -16 8 0 14 -4
14 -10 0 -5 7 -10 15 -10 8 0 15 -4 15 -10 0 -5 7 -10 15 -10 9 0 18 -7 21
-15 4 -8 10 -12 15 -9 5 3 12 -2 15 -10 3 -9 10 -13 15 -10 5 3 12 -2 15 -10
3 -9 10 -13 15 -10 5 3 12 -2 15 -10 3 -9 10 -13 15 -10 5 3 12 -2 15 -10 3
-9 10 -13 15 -10 5 3 12 -2 15 -10 3 -9 10 -13 15 -10 5 3 9 0 9 -5 0 -6 7
-11 15 -11 8 0 15 -4 15 -10 0 -5 7 -10 15 -10 8 0 15 -5 15 -11 0 -5 5 -7 10
-4 6 3 13 -1 16 -9 3 -9 10 -13 15 -10 5 3 9 0 9 -5 0 -6 7 -11 15 -11 8 0 15
-5 15 -11 0 -5 5 -7 10 -4 6 3 13 -1 16 -9 3 -9 10 -13 15 -10 5 3 9 0 9 -5 0
-6 7 -11 15 -11 8 0 15 -5 15 -11 0 -5 5 -7 10 -4 6 3 10 1 10 -4 0 -6 7 -11
15 -11 8 0 15 -5 15 -11 0 -5 5 -7 10 -4 6 3 10 1 10 -4 0 -6 7 -11 15 -11 8
0 15 -5 15 -11 0 -5 5 -7 10 -4 6 3 10 1 10 -5 0 -6 4 -9 8 -6 5 3 18 -3 29
-14 12 -10 24 -16 27 -13 3 4 6 1 6 -6 0 -7 4 -10 8 -7 5 3 18 -3 29 -14 12
-10 24 -16 27 -13 3 4 6 1 6 -6 0 -7 5 -9 10 -6 6 3 10 2 10 -3 0 -6 11 -13
25 -16 14 -4 25 -11 25 -17 0 -6 4 -7 10 -4 6 3 10 1 10 -5 0 -6 4 -8 10 -5 6
3 10 1 10 -5 0 -6 5 -8 10 -5 6 3 10 2 10 -3 0 -6 11 -13 25 -16 14 -4 25 -11
25 -17 0 -6 4 -7 10 -4 5 3 10 1 10 -5 0 -6 5 -8 10 -5 6 3 10 1 10 -5 0 -6 5
-8 10 -5 6 3 10 1 10 -5 0 -6 5 -8 10 -5 6 3 10 1 10 -5 0 -6 5 -8 10 -5 6 3
10 1 10 -5 0 -6 5 -8 10 -5 6 3 10 1 10 -5 0 -6 5 -8 10 -5 6 3 10 1 10 -5 0
-6 5 -8 10 -5 6 3 10 1 10 -5 0 -6 5 -8 10 -5 6 3 10 1 10 -5 0 -6 4 -8 10 -5
5 3 10 1 10 -5 0 -6 4 -8 10 -5 6 3 10 1 10 -5 0 -6 5 -8 10 -5 6 3 10 1 10
-5 0 -6 4 -8 10 -5 5 3 10 1 10 -5 0 -6 4 -8 10 -5 5 3 10 1 10 -5 0 -6 5 -8
10 -5 6 3 10 1 10 -5 0 -6 5 -8 10 -5 6 3 10 1 10 -5 0 -6 4 -8 10 -5 5 3 10
1 10 -5 0 -6 5 -8 10 -5 6 3 10 1 10 -5 0 -6 5 -8 10 -5 6 3 10 1 10 -5 0 -6
5 -8 10 -5 6 3 10 1 10 -5 0 -6 4 -9 9 -5 5 3 12 1 16 -5 4 -6 11 -8 16 -5 5
4 9 1 9 -5 0 -6 5 -8 10 -5 6 3 10 1 10 -5 0 -6 4 -8 10 -5 5 3 10 1 10 -5 0
-6 5 -8 10 -5 6 3 10 1 10 -5 0 -6 4 -9 9 -5 5 3 12 1 16 -5 4 -6 11 -8 16 -5
5 4 9 1 9 -5 0 -6 5 -8 10 -5 6 3 10 1 10 -5 0 -6 5 -8 10 -5 6 3 10 1 10 -5
0 -6 4 -9 9 -5 5 3 12 1 16 -5 4 -6 11 -8 16 -5 5 4 9 1 9 -5 0 -6 5 -8 10 -5
6 3 10 1 10 -5 0 -6 4 -9 9 -5 5 3 12 1 16 -5 4 -6 11 -8 16 -5 5 4 9 1 9 -5
0 -6 4 -8 10 -5 6 3 10 1 10 -5 0 -6 4 -9 9 -5 5 3 12 1 16 -5 4 -6 11 -8 16
-5 5 4 9 1 9 -5 0 -6 4 -9 9 -5 5 3 12 1 16 -5 4 -6 11 -8 16 -5 5 4 9 1 9 -5
0 -6 4 -9 9 -5 5 3 12 1 16 -5 4 -6 11 -8 16 -5 5 4 9 1 9 -5 0 -6 4 -9 9 -5
5 3 12 1 16 -5 4 -6 11 -8 16 -5 5 4 9 1 9 -5 0 -6 4 -9 9 -5 5 3 12 1 16 -5
4 -6 11 -8 16 -5 5 4 9 2 9 -4 0 -6 7 -8 15 -5 8 4 15 1 15 -6 0 -6 4 -9 9 -5
5 3 12 1 16 -5 4 -6 11 -8 16 -5 5 4 9 2 9 -4 0 -6 7 -8 15 -5 8 4 15 1 15 -6
0 -6 4 -9 9 -5 5 3 12 1 16 -5 4 -6 10 -8 15 -5 5 3 11 1 15 -5 4 -6 11 -8 16
-5 5 4 9 2 9 -4 0 -6 7 -8 15 -5 8 4 15 1 15 -5 0 -6 7 -8 15 -5 8 4 15 1 15
-7 0 -7 3 -9 7 -6 3 4 12 2 20 -4 7 -6 13 -8 13 -4 0 4 7 2 15 -5 8 -7 15 -9
15 -5 0 4 7 2 15 -5 8 -7 15 -9 15 -5 0 4 7 2 15 -5 8 -7 15 -9 15 -5 0 4 7 2
15 -5 8 -7 15 -9 15 -5 0 4 7 2 15 -5 8 -7 15 -9 15 -4 0 4 5 3 11 -3 6 -6 18
-9 25 -6 8 3 14 0 14 -6 0 -6 7 -8 15 -5 8 4 15 1 15 -5 0 -6 7 -8 15 -5 8 4
15 1 15 -6 0 -7 7 -10 15 -7 8 4 17 2 20 -3 3 -5 12 -7 20 -3 8 3 15 0 15 -6
0 -6 7 -8 15 -5 8 4 15 1 15 -6 0 -7 7 -10 15 -7 8 4 17 2 20 -3 3 -5 12 -7
20 -3 8 3 15 0 15 -7 0 -7 7 -10 15 -7 8 4 17 2 20 -3 3 -5 12 -7 20 -3 8 3
15 0 15 -7 0 -7 7 -10 15 -7 8 4 17 2 20 -3 3 -5 12 -7 19 -4 8 3 17 1 20 -5
4 -6 13 -8 21 -4 8 3 15 0 15 -7 0 -7 7 -10 15 -7 8 4 17 2 21 -4 3 -6 12 -8
20 -5 7 3 16 1 20 -5 3 -6 12 -8 20 -5 7 3 16 1 20 -5 3 -6 12 -8 20 -5 7 3
16 1 20 -5 3 -5 14 -7 25 -4 11 4 19 2 19 -5 0 -7 8 -9 20 -5 12 4 20 2 20 -5
0 -7 8 -9 19 -5 11 3 22 1 26 -5 3 -6 11 -8 16 -4 5 3 16 1 23 -5 7 -6 21 -9
30 -5 9 3 16 1 16 -6 0 -7 8 -9 19 -5 11 3 22 1 26 -5 4 -6 15 -8 25 -5 10 3
21 1 25 -5 4 -6 15 -8 25 -5 10 3 21 1 25 -5 4 -6 15 -8 25 -5 10 3 21 1 25
-5 4 -6 15 -8 25 -5 10 3 21 1 25 -5 4 -6 15 -8 25 -5 10 3 21 1 25 -5 4 -7
18 -9 30 -6 13 3 27 2 30 -4 3 -6 17 -7 30 -4 12 3 26 1 30 -5 3 -6 17 -8 31
-5 15 4 24 2 24 -6 0 -8 10 -9 29 -5 18 4 32 2 36 -5 4 -7 18 -9 30 -6 13 3
27 1 30 -5 4 -6 19 -7 35 -4 16 4 31 2 35 -5 4 -7 19 -9 35 -5 17 4 31 2 35
-5 5 -7 20 -9 40 -6 20 4 36 2 40 -4 4 -7 21 -9 45 -5 24 4 41 2 45 -5 4 -6
20 -8 41 -4 21 4 40 2 48 -5 9 -8 28 -10 50 -5 23 4 42 2 50 -6 10 -7 30 -9
60 -5 31 5 51 3 61 -5 9 -8 32 -9 69 -5 30 4 60 3 68 -1 15 -11 142 -15 364
-13 108 1 164 -3 168 -10 18 -28 652 1 1076 49 2228 254 4294 1351 5766 3064
1166 1355 1903 3040 2103 4806 31 270 40 390 53 722 10 251 10 311 -1 331 -9
18 -13 71 -12 188 2 224 -2 351 -13 367 -4 8 -5 38 -1 68 4 37 3 60 -5 69 -8
10 -10 30 -5 61 4 30 2 50 -5 60 -8 8 -10 27 -6 50 5 22 3 41 -5 50 -7 8 -9
27 -5 48 4 21 2 37 -4 41 -7 4 -9 21 -5 45 4 24 2 41 -5 45 -7 4 -9 19 -5 36
4 18 2 36 -5 44 -6 8 -9 23 -5 35 4 12 1 27 -5 35 -6 8 -9 23 -5 34 3 10 1 22
-5 26 -7 4 -9 19 -5 35 4 17 2 31 -5 35 -7 4 -9 18 -6 30 3 13 1 27 -5 30 -6
4 -8 18 -5 30 3 13 1 27 -5 30 -6 4 -8 18 -5 30 3 13 2 27 -4 30 -6 3 -7 17
-4 30 3 12 1 26 -6 30 -6 4 -8 15 -5 25 3 10 1 21 -5 25 -6 4 -8 15 -5 25 3
10 1 21 -5 25 -6 4 -8 15 -5 25 3 10 1 21 -5 25 -6 4 -8 15 -5 25 3 10 1 21
-5 25 -6 4 -8 15 -5 25 3 10 1 21 -5 25 -6 4 -8 15 -5 26 4 11 2 19 -5 19 -7
0 -9 8 -5 19 3 11 1 22 -5 26 -6 4 -8 15 -5 26 4 11 2 19 -5 19 -7 0 -9 8 -5
20 4 12 2 20 -5 20 -7 0 -9 8 -5 20 4 12 2 20 -5 20 -7 0 -9 8 -5 20 4 12 2
20 -5 20 -7 0 -9 8 -5 19 3 11 1 22 -4 25 -6 4 -8 13 -5 20 3 8 1 17 -5 20 -6
4 -8 13 -4 21 3 8 0 15 -7 15 -7 0 -9 8 -5 20 4 12 2 20 -5 20 -7 0 -10 7 -7
15 4 8 2 17 -4 21 -6 3 -8 12 -5 20 3 7 1 16 -4 19 -5 3 -7 12 -3 20 3 8 0 15
-7 15 -7 0 -10 7 -7 15 4 8 2 17 -3 20 -5 3 -7 12 -3 20 3 8 0 15 -7 15 -7 0
-10 7 -7 15 4 8 2 17 -3 20 -5 3 -7 12 -3 20 3 8 0 15 -7 15 -7 0 -10 7 -6 15
3 8 1 15 -5 15 -6 0 -9 7 -6 15 4 8 2 17 -3 20 -5 3 -7 12 -3 20 3 8 0 15 -6
15 -6 0 -8 7 -5 15 4 8 1 15 -6 15 -7 0 -10 7 -6 15 3 8 1 15 -5 15 -6 0 -9 6
-6 14 3 8 3 17 -1 21 -4 4 -8 11 -8 16 -1 5 -3 11 -4 14 -1 3 -4 10 -5 15 -1
6 -4 12 -5 15 -1 3 -4 10 -5 15 -1 6 -4 12 -5 15 -1 3 -4 10 -5 15 -1 6 -4 12
-5 15 -1 3 -4 10 -5 15 -1 6 -4 13 -5 18 -1 4 -2 10 -1 15 0 4 -4 7 -10 7 -6
0 -9 7 -5 15 3 8 1 15 -5 15 -6 0 -9 7 -5 15 3 8 1 15 -4 15 -5 0 -7 7 -4 15
4 8 1 15 -6 15 -6 0 -9 4 -5 9 3 5 1 12 -5 16 -6 4 -8 10 -5 15 3 5 1 11 -5
15 -6 4 -8 11 -5 16 4 5 2 9 -4 9 -6 0 -8 7 -5 15 4 8 1 15 -6 15 -6 0 -9 4
-5 9 3 5 1 12 -5 16 -6 4 -8 11 -5 16 4 5 1 9 -5 9 -7 0 -10 7 -6 15 3 8 1 15
-5 15 -6 0 -8 4 -4 9 3 5 1 12 -5 16 -6 4 -8 11 -5 16 4 5 1 9 -5 9 -6 0 -9 4
-5 9 3 5 1 12 -5 16 -6 4 -8 11 -5 16 4 5 1 9 -5 9 -6 0 -9 4 -5 9 3 5 1 12
-5 16 -6 4 -8 11 -5 16 4 5 1 9 -5 9 -6 0 -9 4 -5 9 3 5 1 12 -5 16 -6 4 -8
11 -5 16 4 5 1 9 -5 9 -6 0 -9 4 -6 9 4 5 1 11 -4 13 -6 2 -12 13 -13 26 0 12
-5 22 -10 22 -4 0 -6 4 -2 9 3 5 1 12 -5 16 -6 4 -8 11 -5 16 4 5 1 9 -5 9 -6
0 -8 5 -5 10 3 6 1 10 -5 10 -6 0 -9 4 -5 9 3 5 1 12 -5 16 -6 4 -8 11 -5 16
4 5 1 9 -5 9 -6 0 -8 5 -5 10 3 6 1 10 -5 10 -6 0 -8 5 -5 10 3 6 1 10 -5 10
-6 0 -9 4 -5 9 3 5 1 12 -5 16 -6 4 -8 11 -5 16 4 5 1 9 -5 9 -6 0 -8 5 -5 10
3 6 1 10 -5 10 -6 0 -8 5 -5 10 3 6 1 10 -5 10 -6 0 -8 5 -5 10 3 6 1 10 -4
10 -6 0 -10 3 -9 8 1 4 -3 17 -10 28 -6 12 -8 24 -5 28 3 3 1 6 -6 6 -7 0 -9
5 -6 10 3 6 1 10 -5 10 -6 0 -8 5 -5 10 3 6 1 10 -5 10 -6 0 -8 5 -5 10 3 6 1
10 -5 10 -6 0 -8 5 -5 10 3 6 1 10 -5 10 -6 0 -8 5 -5 10 3 6 1 10 -5 10 -6 0
-8 5 -5 10 3 6 1 10 -5 10 -6 0 -8 5 -5 10 3 6 1 10 -5 10 -6 0 -8 5 -5 10 3
6 1 10 -5 10 -6 0 -8 5 -5 10 3 6 1 10 -5 10 -6 0 -8 5 -5 10 3 6 1 10 -5 10
-6 0 -8 5 -5 10 3 6 1 10 -5 10 -6 0 -8 5 -5 10 3 6 1 10 -5 10 -6 0 -8 5 -5
10 3 6 1 10 -5 10 -6 0 -8 5 -5 10 3 6 1 10 -5 10 -6 0 -8 5 -5 10 3 6 1 10
-5 10 -6 0 -8 5 -5 10 3 6 1 10 -5 10 -6 0 -8 5 -5 10 3 6 1 10 -5 10 -6 0 -8
5 -5 10 3 6 1 10 -5 10 -6 0 -8 5 -5 10 3 6 2 10 -4 10 -6 0 -13 11 -17 25 -3
14 -10 25 -16 25 -5 0 -6 5 -3 10 3 6 1 10 -5 10 -6 0 -8 5 -5 10 3 6 1 10 -5
10 -6 0 -8 5 -5 10 3 6 2 10 -4 10 -6 0 -13 11 -17 25 -3 14 -10 25 -16 25 -5
0 -6 5 -3 10 3 6 1 10 -6 10 -7 0 -10 3 -6 6 3 3 -3 15 -13 27 -11 11 -17 24
-14 29 3 4 0 8 -7 8 -7 0 -10 3 -6 6 3 3 -3 15 -13 27 -11 11 -17 24 -14 29 3
4 0 8 -6 8 -6 0 -8 5 -5 10 3 6 1 10 -4 10 -6 0 -11 7 -11 15 0 8 -5 15 -11
15 -5 0 -7 5 -4 10 3 6 1 10 -4 10 -6 0 -11 7 -11 15 0 8 -5 15 -11 15 -5 0
-7 5 -4 10 3 6 1 10 -4 10 -6 0 -11 7 -11 15 0 8 -5 15 -11 15 -5 0 -8 4 -5 9
3 5 -1 12 -10 15 -8 3 -12 10 -9 16 3 5 1 10 -4 10 -6 0 -11 7 -11 15 0 8 -5
15 -11 15 -5 0 -8 4 -5 9 3 5 -1 12 -10 15 -8 3 -12 10 -9 16 3 5 1 10 -4 10
-6 0 -11 7 -11 15 0 8 -4 15 -10 15 -5 0 -10 7 -10 15 0 8 -5 15 -11 15 -5 0
-8 4 -5 9 3 5 -1 12 -10 15 -8 3 -13 10 -10 15 3 5 -1 12 -10 15 -8 3 -13 10
-10 15 3 5 -1 12 -10 15 -8 3 -13 10 -10 15 3 5 -1 12 -10 15 -8 3 -13 10 -10
15 3 5 -1 12 -10 15 -8 3 -13 10 -10 15 3 5 -1 11 -9 15 -8 3 -15 12 -15 21 0
8 -4 15 -10 15 -5 0 -10 7 -10 15 0 8 -4 15 -10 15 -5 0 -10 6 -10 14 0 8 -7
17 -16 20 -8 3 -13 10 -10 15 3 5 -1 11 -9 15 -8 3 -15 12 -15 21 0 8 -4 15
-10 15 -5 0 -10 6 -10 14 0 8 -7 16 -15 20 -8 3 -15 12 -15 20 0 7 -7 16 -15
20 -8 3 -15 12 -15 20 0 7 -7 17 -16 20 -8 3 -13 10 -10 15 3 5 -1 11 -9 15
-8 3 -15 11 -15 18 0 7 -9 19 -21 26 -12 7 -18 16 -15 19 3 4 -3 13 -14 20
-11 8 -18 18 -15 23 3 5 -4 14 -15 20 -11 6 -20 16 -20 23 0 7 -9 18 -20 25
-11 7 -20 18 -20 25 0 7 -9 18 -20 25 -12 7 -18 17 -15 21 2 5 -7 16 -20 25
-14 9 -23 21 -20 25 2 5 -6 16 -20 25 -14 9 -25 21 -25 27 0 6 -11 20 -25 31
-14 11 -25 24 -25 30 0 5 -11 19 -25 30 -14 11 -25 25 -25 31 0 7 -16 25 -35
40 -19 15 -35 32 -35 37 0 6 -18 26 -40 46 -22 20 -40 40 -40 44 0 9 -60 71
-340 351 -342 341 -339 339 -349 339 -5 0 -25 18 -44 40 -19 22 -39 40 -45 40
-6 0 -24 16 -39 35 -15 19 -34 35 -40 35 -7 0 -20 11 -29 25 -9 14 -22 25 -29
25 -8 0 -22 11 -33 25 -11 14 -25 25 -31 25 -6 0 -16 9 -23 20 -7 11 -18 20
-25 20 -7 0 -20 11 -29 25 -9 14 -23 25 -30 25 -8 0 -17 7 -20 15 -4 8 -12 15
-20 15 -8 0 -19 9 -26 20 -7 11 -18 20 -25 20 -7 0 -17 9 -23 20 -6 11 -15 18
-20 15 -5 -3 -15 4 -23 15 -7 11 -16 17 -20 14 -3 -3 -12 3 -19 15 -7 12 -19
21 -26 21 -7 0 -15 7 -18 15 -4 8 -10 12 -15 9 -5 -3 -12 2 -15 10 -3 9 -13
16 -20 16 -8 0 -17 7 -20 15 -4 8 -13 15 -20 15 -8 0 -17 7 -20 15 -4 8 -10
12 -15 9 -5 -3 -12 2 -15 10 -3 9 -13 16 -20 16 -8 0 -17 7 -20 15 -4 8 -10
12 -15 9 -5 -3 -12 2 -15 10 -3 9 -12 16 -20 16 -8 0 -14 5 -14 10 0 6 -7 10
-15 10 -8 0 -15 5 -15 10 0 6 -7 10 -15 10 -9 0 -18 7 -21 15 -4 8 -10 12 -15
9 -5 -3 -12 2 -15 10 -3 9 -10 13 -15 10 -5 -3 -12 2 -15 10 -3 9 -10 13 -15
10 -5 -3 -12 2 -15 10 -3 9 -9 14 -14 11 -4 -2 -16 5 -28 15 -12 11 -26 20
-32 20 -5 0 -10 5 -10 10 0 6 -7 10 -15 10 -8 0 -15 5 -15 10 0 6 -7 10 -15
10 -8 0 -15 5 -15 11 0 5 -5 7 -10 4 -6 -3 -13 1 -16 9 -3 9 -10 13 -15 10 -5
-3 -9 0 -9 5 0 6 -7 11 -15 11 -8 0 -15 5 -15 11 0 5 -4 8 -8 5 -5 -3 -18 3
-29 14 -12 10 -23 16 -27 13 -3 -3 -8 2 -12 11 -3 9 -10 13 -15 10 -5 -3 -9 0
-9 5 0 6 -7 11 -15 11 -8 0 -15 5 -15 11 0 5 -4 7 -10 4 -5 -3 -10 -2 -10 3 0
6 -11 13 -25 16 -14 4 -25 11 -25 17 0 6 -4 8 -8 5 -5 -3 -18 3 -29 14 -12 10
-24 16 -27 13 -3 -4 -6 -1 -6 6 0 7 -4 9 -10 6 -5 -3 -10 -1 -10 4 0 6 -7 11
-15 11 -8 0 -15 5 -15 11 0 5 -4 7 -10 4 -5 -3 -10 -1 -10 5 0 6 -4 8 -10 5
-5 -3 -10 -2 -10 3 0 6 -11 13 -25 16 -14 4 -25 11 -25 17 0 6 -4 7 -10 4 -5
-3 -10 -1 -10 5 0 6 -4 8 -10 5 -5 -3 -10 -1 -10 5 0 6 -4 8 -10 5 -5 -3 -10
-2 -10 3 0 6 -11 13 -25 16 -14 4 -25 11 -25 17 0 6 -4 7 -10 4 -5 -3 -10 -1
-10 5 0 6 -4 8 -10 5 -5 -3 -10 -1 -10 5 0 6 -4 8 -10 5 -5 -3 -10 -1 -10 5 0
6 -4 8 -10 5 -5 -3 -10 -1 -10 5 0 6 -4 8 -10 5 -5 -3 -10 -1 -10 5 0 6 -4 8
-10 5 -5 -3 -10 -1 -10 5 0 6 -4 8 -10 5 -5 -3 -10 -1 -10 5 0 6 -4 8 -10 5
-5 -3 -10 -1 -10 5 0 6 -4 8 -10 5 -5 -3 -10 -1 -10 5 0 6 -4 8 -10 5 -5 -3
-10 -1 -10 5 0 6 -4 8 -10 5 -5 -3 -10 -1 -10 5 0 6 -4 8 -10 5 -5 -3 -10 -1
-10 5 0 6 -4 8 -10 5 -5 -3 -10 -1 -10 5 0 6 -4 8 -10 5 -5 -3 -10 -1 -10 5 0
6 -4 8 -10 5 -5 -3 -10 -1 -10 5 0 6 -4 8 -10 5 -5 -3 -10 -1 -10 5 0 6 -4 8
-10 5 -5 -3 -10 -1 -10 5 0 6 -4 8 -10 5 -5 -3 -10 -1 -10 6 0 7 -3 10 -6 6
-4 -3 -21 1 -38 10 -17 10 -34 16 -38 15 -5 -1 -8 3 -8 9 0 5 -4 7 -10 4 -5
-3 -10 -1 -10 5 0 6 -4 8 -10 5 -5 -3 -10 -1 -10 6 0 7 -3 9 -6 6 -4 -3 -16
-1 -28 5 -11 7 -24 11 -28 10 -5 -1 -8 3 -8 9 0 5 -4 7 -10 4 -5 -3 -10 -1
-10 6 0 7 -3 9 -6 6 -4 -3 -16 -1 -28 5 -11 7 -24 11 -28 10 -5 -1 -8 3 -8 9
0 5 -4 7 -10 4 -5 -3 -10 -1 -10 5 0 6 -4 9 -9 5 -5 -3 -12 -1 -16 5 -4 6 -11
8 -16 5 -5 -4 -9 -1 -9 5 0 6 -4 8 -10 5 -5 -3 -10 -2 -10 4 0 6 -7 8 -15 5
-8 -4 -15 -1 -15 6 0 6 -4 8 -10 5 -5 -3 -10 -2 -10 4 0 6 -7 8 -15 5 -8 -4
-15 -1 -15 6 0 6 -4 8 -10 5 -5 -3 -10 -1 -10 5 0 6 -4 9 -9 5 -5 -3 -12 -1
-16 5 -4 6 -11 8 -16 5 -5 -4 -9 -1 -9 5 0 6 -4 9 -9 5 -5 -3 -12 -1 -16 5 -4
6 -11 8 -16 5 -5 -4 -9 -2 -9 4 0 6 -7 8 -15 5 -8 -4 -15 -1 -15 6 0 6 -4 8
-10 5 -5 -3 -10 -1 -10 5 0 7 -7 10 -15 6 -8 -3 -15 -1 -15 5 0 6 -4 8 -9 4
-5 -3 -12 -1 -16 5 -4 6 -10 8 -15 5 -5 -3 -11 -1 -15 5 -4 6 -11 8 -16 5 -5
-4 -9 -2 -9 4 0 6 -7 8 -15 5 -8 -4 -15 -1 -15 6 0 6 -4 9 -9 5 -5 -3 -12 -1
-16 5 -4 6 -11 8 -16 5 -5 -4 -9 -1 -9 5 0 7 -7 10 -15 6 -8 -3 -15 -1 -15 4
0 5 -7 7 -15 4 -8 -4 -15 -1 -15 5 0 6 -7 8 -15 5 -8 -4 -15 -1 -15 5 0 6 -7
8 -15 5 -8 -4 -15 -1 -15 6 0 6 -4 9 -9 5 -5 -3 -12 -1 -16 5 -4 6 -10 8 -15
5 -5 -3 -11 -1 -15 5 -4 6 -10 8 -15 5 -5 -3 -11 -1 -15 4 -3 6 -12 8 -20 4
-8 -3 -15 0 -15 6 0 6 -7 8 -15 5 -8 -4 -15 -1 -15 5 0 6 -7 8 -15 5 -8 -4
-15 -1 -15 5 0 6 -7 8 -15 5 -8 -4 -15 -1 -15 6 0 7 -7 10 -15 7 -8 -4 -17 -2
-20 4 -4 5 -10 7 -15 4 -5 -3 -11 -1 -15 4 -3 6 -12 8 -20 4 -8 -3 -15 0 -15
7 0 7 -7 10 -15 7 -8 -4 -17 -2 -20 4 -4 5 -10 7 -15 4 -5 -3 -11 -1 -15 4 -3
6 -12 8 -20 4 -8 -3 -15 0 -15 7 0 7 -7 10 -15 7 -8 -4 -17 -2 -20 3 -3 5 -12
7 -20 3 -8 -3 -15 0 -15 7 0 7 -8 9 -20 5 -12 -4 -20 -2 -20 5 0 7 -7 10 -15
7 -8 -4 -17 -2 -20 3 -3 5 -12 7 -20 3 -8 -3 -15 0 -15 7 0 7 -8 9 -20 5 -12
-4 -20 -2 -20 5 0 7 -8 9 -20 5 -12 -4 -20 -2 -20 5 0 7 -8 9 -20 5 -12 -4
-20 -2 -20 5 0 7 -8 9 -20 5 -12 -4 -20 -2 -20 5 0 7 -8 9 -20 5 -12 -4 -20
-2 -20 5 0 7 -8 9 -20 5 -12 -4 -20 -2 -20 5 0 7 -7 9 -16 6 -9 -4 -23 -1 -30
5 -7 6 -18 8 -23 5 -5 -4 -13 -2 -16 4 -4 6 -15 8 -25 5 -10 -3 -21 -1 -25 5
-4 6 -15 8 -26 5 -11 -4 -19 -2 -19 5 0 7 -8 9 -19 5 -11 -3 -22 -1 -26 5 -4
6 -15 8 -25 5 -10 -3 -21 -1 -25 5 -4 6 -15 8 -25 5 -10 -3 -21 -1 -25 5 -3 5
-17 7 -31 4 -15 -4 -24 -2 -24 6 0 7 -8 9 -20 5 -12 -4 -27 -1 -35 5 -8 6 -19
9 -25 5 -6 -4 -17 -1 -25 5 -8 6 -23 9 -34 5 -10 -3 -22 -1 -26 5 -3 5 -17 7
-30 4 -12 -3 -26 -1 -30 5 -3 6 -17 8 -30 5 -12 -3 -26 -1 -30 6 -4 7 -18 9
-35 5 -16 -4 -31 -2 -35 5 -4 7 -19 9 -35 5 -16 -4 -31 -2 -35 5 -4 7 -19 9
-35 5 -16 -4 -31 -2 -35 5 -4 6 -20 8 -40 4 -20 -3 -35 -1 -40 6 -4 7 -18 9
-36 5 -16 -4 -34 -3 -41 2 -7 4 -31 9 -53 10 -22 2 -65 5 -95 8 -276 27 -408
32 -873 37 -197 1 -368 -1 -379 -5z m982 -2621 c755 -82 1387 -252 2030 -545
700 -320 1402 -815 1916 -1355 103 -107 113 -121 99 -136 -13 -14 -4 -27 86
-130 1228 -1394 1779 -3227 1524 -5070 -8 -58 -18 -118 -21 -134 -6 -27 -83
48 -1742 1705 -954 954 -1710 1705 -1680 1669 926 -1093 1120 -2655 488 -3945
-219 -449 -492 -806 -879 -1152 -372 -332 -892 -617 -1382 -757 -624 -178
-1264 -192 -1889 -40 -535 130 -1067 401 -1480 752 -36 30 717 -728 1674
-1685 1380 -1381 1735 -1742 1720 -1747 -29 -8 -281 -43 -464 -63 -239 -26
-981 -26 -1220 0 -810 89 -1504 286 -2185 622 -514 253 -935 537 -1412 950
-723 627 -1320 1472 -1685 2389 -230 576 -360 1122 -430 1806 -18 171 -18 919
0 1100 102 1045 411 1964 944 2817 612 978 1504 1790 2533 2306 706 354 1515
582 2290 646 72 6 148 13 170 15 111 10 859 -3 995 -18z"/>
<path d="M9813 13613 c9 -2 25 -2 35 0 9 3 1 5 -18 5 -19 0 -27 -2 -17 -5z"/>
<path d="M10213 13613 c9 -2 25 -2 35 0 9 3 1 5 -18 5 -19 0 -27 -2 -17 -5z"/>
<path d="M9678 13603 c6 -2 18 -2 25 0 6 3 1 5 -13 5 -14 0 -19 -2 -12 -5z"/>
<path d="M10358 13603 c6 -2 18 -2 25 0 6 3 1 5 -13 5 -14 0 -19 -2 -12 -5z"/>
<path d="M9588 13593 c6 -2 18 -2 25 0 6 3 1 5 -13 5 -14 0 -19 -2 -12 -5z"/>
<path d="M10448 13593 c6 -2 18 -2 25 0 6 3 1 5 -13 5 -14 0 -19 -2 -12 -5z"/>
<path d="M9508 13583 c7 -3 16 -2 19 1 4 3 -2 6 -13 5 -11 0 -14 -3 -6 -6z"/>
<path d="M10538 13583 c7 -3 16 -2 19 1 4 3 -2 6 -13 5 -11 0 -14 -3 -6 -6z"/>
<path d="M6411 10484 c0 -11 3 -14 6 -6 3 7 2 16 -1 19 -3 4 -6 -2 -5 -13z"/>
<path d="M6402 10400 c0 -14 2 -19 5 -12 2 6 2 18 0 25 -3 6 -5 1 -5 -13z"/>
<path d="M6392 10310 c0 -14 2 -19 5 -12 2 6 2 18 0 25 -3 6 -5 1 -5 -13z"/>
<path d="M6382 10170 c0 -19 2 -27 5 -17 2 9 2 25 0 35 -3 9 -5 1 -5 -18z"/>
<path d="M6383 9765 c0 -22 2 -30 4 -17 2 12 2 30 0 40 -3 9 -5 -1 -4 -23z"/>
<path d="M6392 9630 c0 -14 2 -19 5 -12 2 6 2 18 0 25 -3 6 -5 1 -5 -13z"/>
<path d="M6401 9534 c0 -11 3 -14 6 -6 3 7 2 16 -1 19 -3 4 -6 -2 -5 -13z"/>
<path d="M6411 9454 c0 -11 3 -14 6 -6 3 7 2 16 -1 19 -3 4 -6 -2 -5 -13z"/>
</g>
</svg>
